<?xml version="1.0" encoding="iso-8859-1"?>
<!-- Generator: Adobe Illustrator 19.0.0, SVG Export Plug-In . SVG Version: 6.00 Build 0)  -->
<svg version="1.1" id="Capa_1" xmlns="http://www.w3.org/2000/svg" xmlns:xlink="http://www.w3.org/1999/xlink" x="0px" y="0px"
	 viewBox="0 0 512 512" style="enable-background:new 0 0 512 512;" xml:space="preserve">
<g>
	<g>
		<path d="M405.333,106.667H42.667c-5.891,0-10.667,4.776-10.667,10.667V480c0,17.673,14.327,32,32,32h128v-21.333H64
			c-5.891,0-10.667-4.776-10.667-10.667V128h341.333v85.333H416v-96C416,111.442,411.224,106.667,405.333,106.667z"/>
	</g>
</g>
<g>
	<g>
		<path d="M469.333,106.667h-32V128h21.333v85.333H480v-96C480,111.442,475.224,106.667,469.333,106.667z"/>
	</g>
</g>
<g>
	<g>
		<path d="M309.333,0H138.667c-17.673,0-32,14.327-32,32v138.667H128V32c0-5.891,4.776-10.667,10.667-10.667h170.667
			C315.224,21.333,320,26.109,320,32v138.667h21.333V32C341.333,14.327,327.006,0,309.333,0z"/>
	</g>
</g>
<g>
	<g>
		<path d="M384,0h-21.333v21.333H384c5.891,0,10.667,4.776,10.667,10.667v53.333H416V32C416,14.327,401.673,0,384,0z"/>
	</g>
</g>
<g>
	<g>
		<path d="M128,160h-21.333c-11.782,0-21.333,9.551-21.333,21.333V192h21.333v-10.667H128V192h21.333v-10.667
			C149.333,169.551,139.782,160,128,160z"/>
	</g>
</g>
<g>
	<g>
		<path d="M341.333,160H320c-11.782,0-21.333,9.551-21.333,21.333v32c0,5.891,4.776,10.667,10.667,10.667H352
			c5.891,0,10.667-4.776,10.667-10.667v-32C362.667,169.551,353.115,160,341.333,160z M341.333,202.667H320v-21.333h21.333V202.667z
			"/>
	</g>
</g>
<g>
	<g>
		<path d="M256,448c-17.673,0-32,14.327-32,32s14.327,32,32,32s32-14.327,32-32S273.673,448,256,448z M256,490.667
			c-5.891,0-10.667-4.776-10.667-10.667c0-5.891,4.776-10.667,10.667-10.667s10.667,4.776,10.667,10.667
			C266.667,485.891,261.891,490.667,256,490.667z"/>
	</g>
</g>
<g>
	<g>
		<path d="M384,448c-17.673,0-32,14.327-32,32s14.327,32,32,32s32-14.327,32-32S401.673,448,384,448z M384,490.667
			c-5.891,0-10.667-4.776-10.667-10.667c0-5.891,4.776-10.667,10.667-10.667c5.891,0,10.667,4.776,10.667,10.667
			C394.667,485.891,389.891,490.667,384,490.667z"/>
	</g>
</g>
<g>
	<g>
		<rect x="213.333" y="320" width="234.667" height="21.333"/>
	</g>
</g>
<g>
	<g>
		<path d="M448,245.333H213.333c-5.891,0-10.667,4.776-10.667,10.667v138.667H224v-128h213.333v144.917L432.917,416H181.333V224
			c0-5.891-4.776-10.667-10.667-10.667h-53.333v21.333H160V416c-0.006,0.295-0.006,0.589,0,0.884
			c0.244,11.538,9.795,20.693,21.333,20.449h256c2.829-0.001,5.541-1.125,7.541-3.125l10.667-10.667c2-2,3.125-4.713,3.125-7.541
			V256C458.667,250.109,453.891,245.333,448,245.333z"/>
	</g>
</g>
<g>
	<g>
		<rect x="320" y="256" width="21.333" height="138.667"/>
	</g>
</g>
<g>
	<g>
		<rect x="373.333" y="256" width="21.333" height="138.667"/>
	</g>
</g>
<g>
	<g>
		<rect x="266.667" y="256" width="21.333" height="138.667"/>
	</g>
</g>
<g>
	<g>
		<path d="M452.416,469.333l-18.208-18.208c-2-2.001-4.713-3.125-7.541-3.125H224v-21.333h-21.333v32
			c0,5.891,4.776,10.667,10.667,10.667h208.917l18.208,18.208c2,2,4.713,3.125,7.541,3.125h21.333v-21.333H452.416z"/>
	</g>
</g>
<g>
</g>
<g>
</g>
<g>
</g>
<g>
</g>
<g>
</g>
<g>
</g>
<g>
</g>
<g>
</g>
<g>
</g>
<g>
</g>
<g>
</g>
<g>
</g>
<g>
</g>
<g>
</g>
<g>
</g>
</svg>
