<svg height="480pt" viewBox="0 -6 480 480" width="480pt" xmlns="http://www.w3.org/2000/svg"><path d="m473.609375 461.199219v.601562h-467.21875v-.601562h.328125l160.589844-151.1875.5-.53125 72.191406 67.449219 74.828125-69.917969.410156.4375 158 153.75zm0 0" fill="#00ceb4"/><path d="m473.609375 158.628906v302.570313h-.371094l-158-153.75-.410156-.4375zm0 0" fill="#00acea"/><path d="m473.609375 158.210938v.417968l-158.78125 148.382813-74.828125 69.917969-72.191406-67.449219-161.417969-150.820313v-.449218h193.160156v1.769531c-34.082031 15.269531-43.121093 36.960937-43.121093 69.789062h43.128906v18.941407h9.011718v22.777343h11.007813c-.546875 2.84375-.828125 13.160157-.839844 15.613281 0 18.558594 14.371094 33.828126 20.363281 35.019532h1.5c5.976563-1.191406 20.648438-16.460938 20.648438-35.019532-.050781-2.3125-.25-12.960937-.601562-15.242187v-.371094h10.78125v-22.777343h8.949218v-18.941407h43.191406c0-32.257812-9.609374-53.660156-42.832031-69.21875h-.359375v-2.339843zm0 0" fill="#00efd1"/><path d="m323.570312 229.769531h-43.191406v-69.21875h.359375c33.222657 15.558594 42.832031 36.960938 42.832031 69.21875zm0 0" fill="#f4b844"/><path d="m199.550781 159.980469v-52.058594c0-31.183594 10.117188-61.527344 28.828125-86.472656l11.589844-15.449219 11.589844 15.449219c18.710937 24.945312 28.824218 55.289062 28.820312 86.472656v140.789063h-80.820312v-18.941407zm60.808594-29.242188c.015625-9.726562-6.84375-18.109375-16.382813-20.015625-9.535156-1.910156-19.09375 3.183594-22.824218 12.167969-3.730469 8.984375-.59375 19.351563 7.492187 24.761719 8.085938 5.40625 18.867188 4.347656 25.746094-2.53125 3.816406-3.8125 5.960937-8.984375 5.96875-14.382813zm0 0" fill="#00acea"/><path d="m219.578125 271.488281h-11.007813v-22.777343h62.859376v22.777343zm0 0" fill="#f4b844"/><path d="m260.648438 271.859375c.351562 2.28125.550781 12.929687.601562 15.242187 0 18.558594-14.671875 33.828126-20.648438 35.019532h-1.5c-5.992187-1.191406-20.363281-16.460938-20.363281-35.019532.011719-2.453124.292969-12.769531.839844-15.613281h41.070313zm0 0" fill="#fedb41"/><path d="m240 110.378906c11.242188.003906 20.351562 9.117188 20.351562 20.359375-.003906 11.238281-9.113281 20.351563-20.355468 20.351563-11.238282 0-20.351563-9.109375-20.355469-20.351563.003906-11.242187 9.117187-20.355469 20.359375-20.359375zm0 0" fill="#fedb41"/><path d="m199.550781 159.980469.007813 69.789062h-43.128906c0-32.828125 9.039062-54.519531 43.121093-69.789062zm0 0" fill="#f4b844"/><path d="m6.390625 158.660156 161.417969 150.820313-.5.53125-160.589844 151.1875h-.328125zm0 0" fill="#00acea"/><g fill="#083863"><path d="m473.609375 151.898438h-187.609375v-43.976563c.003906-32.453125-10.457031-64.039063-29.832031-90.074219l-11.492188-15.449218c-1.117187-1.507813-2.886719-2.398438-4.765625-2.398438s-3.644531.890625-4.765625 2.398438l-11.578125 15.449218c-19.425781 25.960938-29.957031 57.496094-30.023437 89.917969l.011719 44.132813h-187.164063c-3.449219.117187-6.234375 2.863281-6.390625 6.3125v303.589843c.175781 3.40625 2.980469 6.082031 6.390625 6.097657h467.21875c3.410156-.015626 6.214844-2.691407 6.390625-6.097657v-303.589843c-.15625-3.449219-2.941406-6.195313-6.390625-6.3125zm-187.609375 18.316406c21 12 30.308594 27.683594 31.445312 53.683594h-31.445312zm-30.761719 116.632812.011719.414063c-.03125 14.96875-11.519531 27.058593-15.382812 28.855469-3.882813-1.851563-15.128907-13.808594-15.128907-28.761719.007813-1.941407.136719-6.457031.320313-9.457031h29.933594c.074218 2 .160156 4.78125.246093 8.949218zm-61.679687-62.949218h-31.023438c.871094-23 7.363282-40.769532 31.019532-54.070313zm71.441406 42h-50v-11h50zm-105-80.734376c-6.527344 11.445313-9.566406 25.714844-9.566406 44.597657-.011719 3.34375 2.660156 6.078125 6 6.144531h37.566406v12.808594c0 3.3125 2.246094 6.191406 5.558594 6.191406h3.441406v16.589844c0 3.3125 2.257812 6.410156 5.570312 6.410156h4.472657c-.234375 4-.300781 9.316406-.300781 9.398438 0 20.484374 15.28125 38.722656 25.191406 40.691406.390625.003906.78125-.027344 1.167968-.097656h1.5c.347657.039062.699219.039062 1.046876 0 8.953124-1.785157 25.351562-19.742188 25.351562-40.796876v-.128906l.113281-.375c-.078125-3.660156-.03125-6.699218-.113281-8.699218h4.429688c3.3125 0 5.570312-3.097657 5.570312-6.410157v-16.589843h3.378906c3.3125 0 5.621094-2.875 5.621094-6.1875v-12.8125h37.570312c3.355469-.101563 6.015626-2.859376 6-6.21875 0-30.773438-8.976562-50.78125-30.234374-65.78125h159.515624l-148.117187 138.574218-70.734375 66.011719-218.882812-204.585937h158.617187c-8.089844 5.519531-14.832031 12.789062-19.734375 21.265624zm-1.316406 124.359376-146.683594 138.097656v-275.148438zm9.175781 8.261718 68.039063 63.554688c2.316406 2.144531 5.890624 2.136718 8.195312-.019532l70.628906-65.945312 144.363282 140.523438h-437.875zm156.035156-10.667968 144.105469-134.667969v274.898437zm-90.714843-282.066407 6.789062-9.050781 6.601562 9.050781c17.820313 23.953125 27.4375 53.015625 27.429688 82.871094v134.976563h-68v-13.144532l-.226562-69.191406c0-.390625-.035157-.777344-.109376-1.160156l-.058593-51.480469c.042969-29.871094 9.710937-58.933594 27.574219-82.871094zm0 0"/><path d="m240 156.898438h.011719c14.558593 0 26.359375-11.804688 26.359375-26.367188 0-14.558594-11.804688-26.363281-26.367188-26.363281-14.558594 0-26.363281 11.804687-26.363281 26.363281-.003906 14.5625 11.800781 26.367188 26.359375 26.367188zm0-40.519532c7.925781.003906 14.351562 6.429688 14.351562 14.359375-.003906 7.925781-6.429687 14.351563-14.355468 14.351563-7.925782 0-14.351563-6.421875-14.355469-14.351563.011719-7.921875 6.433594-14.34375 14.359375-14.359375zm0 0"/></g></svg>